<svg width="130" height="30" viewBox="0 0 130 30" fill="none" xmlns="http://www.w3.org/2000/svg">
<path d="M18.397 22.31C18.657 22.31 18.857 22.43 18.997 22.67C19.157 22.91 19.237 23.24 19.237 23.66C19.237 24.46 19.047 25.08 18.667 25.52C17.847 26.52 16.947 27.38 15.967 28.1C14.987 28.8 14.017 29.15 13.057 29.15C11.537 29.15 10.377 28.26 9.57699 26.48C8.73699 27.54 7.99699 28.25 7.35699 28.61C6.73699 28.97 6.00699 29.15 5.16699 29.15C3.94699 29.15 2.93699 28.7 2.13699 27.8C1.35699 26.88 0.966992 25.69 0.966992 24.23C0.966992 22.63 1.30699 21.15 1.98699 19.79C2.66699 18.41 3.59699 17.29 4.77699 16.43C5.97699 15.55 7.31699 15.03 8.79699 14.87C9.17699 10.99 9.89699 7.68 10.957 4.94C12.037 2.18 13.447 0.799998 15.187 0.799998C16.047 0.799998 16.757 1.19 17.317 1.97C17.897 2.75 18.187 3.93 18.187 5.51C18.187 7.75 17.637 10.37 16.537 13.37C15.437 16.37 13.967 19.45 12.127 22.61C12.207 23.77 12.377 24.6 12.637 25.1C12.917 25.6 13.267 25.85 13.687 25.85C14.227 25.85 14.777 25.61 15.337 25.13C15.897 24.65 16.647 23.85 17.587 22.73C17.827 22.45 18.097 22.31 18.397 22.31ZM14.857 3.74C14.477 3.74 14.097 4.42 13.717 5.78C13.337 7.12 13.007 8.88 12.727 11.06C12.467 13.24 12.277 15.52 12.157 17.9C14.397 13.02 15.517 9.1 15.517 6.14C15.517 5.38 15.447 4.79 15.307 4.37C15.187 3.95 15.037 3.74 14.857 3.74ZM6.21699 26.12C6.59699 26.12 6.97699 25.97 7.35699 25.67C7.73699 25.35 8.21699 24.77 8.79699 23.93C8.59699 22.85 8.49699 21.64 8.49699 20.3C8.49699 19.82 8.51699 19.04 8.55699 17.96C7.45699 18.3 6.53699 19.04 5.79699 20.18C5.07699 21.3 4.71699 22.55 4.71699 23.93C4.71699 25.39 5.21699 26.12 6.21699 26.12ZM30.1764 22.31C30.4364 22.31 30.6364 22.43 30.7764 22.67C30.9364 22.91 31.0164 23.24 31.0164 23.66C31.0164 24.46 30.8264 25.08 30.4464 25.52C29.7064 26.42 28.6564 27.25 27.2964 28.01C25.9564 28.77 24.5164 29.15 22.9764 29.15C20.8764 29.15 19.2464 28.58 18.0864 27.44C16.9264 26.3 16.3464 24.74 16.3464 22.76C16.3464 21.38 16.6364 20.1 17.2164 18.92C17.7964 17.72 18.5964 16.77 19.6164 16.07C20.6564 15.37 21.8264 15.02 23.1264 15.02C24.2864 15.02 25.2164 15.37 25.9164 16.07C26.6164 16.75 26.9664 17.68 26.9664 18.86C26.9664 20.24 26.4664 21.43 25.4664 22.43C24.4864 23.41 22.8164 24.19 20.4564 24.77C20.9564 25.69 21.9064 26.15 23.3064 26.15C24.2064 26.15 25.2264 25.84 26.3664 25.22C27.5264 24.58 28.5264 23.75 29.3664 22.73C29.6064 22.45 29.8764 22.31 30.1764 22.31ZM22.6164 17.96C21.8764 17.96 21.2464 18.39 20.7264 19.25C20.2264 20.11 19.9764 21.15 19.9764 22.37V22.43C21.1564 22.15 22.0864 21.73 22.7664 21.17C23.4464 20.61 23.7864 19.96 23.7864 19.22C23.7864 18.84 23.6764 18.54 23.4564 18.32C23.2564 18.08 22.9764 17.96 22.6164 17.96ZM30.7038 29.15C29.9438 29.15 29.4038 28.75 29.0838 27.95C28.7838 27.15 28.6338 25.87 28.6338 24.11C28.6338 21.51 29.0038 19.04 29.7438 16.7C29.9238 16.12 30.2138 15.7 30.6138 15.44C31.0338 15.16 31.6138 15.02 32.3538 15.02C32.7538 15.02 33.0338 15.07 33.1938 15.17C33.3538 15.27 33.4338 15.46 33.4338 15.74C33.4338 16.06 33.2838 16.78 32.9838 17.9C32.7838 18.7 32.6238 19.4 32.5038 20C32.3838 20.6 32.2838 21.34 32.2038 22.22C32.8638 20.5 33.6038 19.1 34.4238 18.02C35.2438 16.94 36.0438 16.17 36.8238 15.71C37.6238 15.25 38.3538 15.02 39.0138 15.02C40.3138 15.02 40.9638 15.67 40.9638 16.97C40.9638 17.23 40.8738 17.86 40.6938 18.86C40.5338 19.66 40.4538 20.16 40.4538 20.36C40.4538 21.06 40.7038 21.41 41.2038 21.41C41.7638 21.41 42.4838 20.97 43.3638 20.09C43.6238 19.83 43.8938 19.7 44.1738 19.7C44.4338 19.7 44.6338 19.82 44.7738 20.06C44.9338 20.28 45.0138 20.58 45.0138 20.96C45.0138 21.7 44.8138 22.28 44.4138 22.7C43.8538 23.28 43.1938 23.78 42.4338 24.2C41.6938 24.6 40.9038 24.8 40.0638 24.8C39.0038 24.8 38.1938 24.53 37.6338 23.99C37.0938 23.45 36.8238 22.72 36.8238 21.8C36.8238 21.5 36.8538 21.2 36.9138 20.9C36.9538 20.5 36.9738 20.23 36.9738 20.09C36.9738 19.77 36.8638 19.61 36.6438 19.61C36.3438 19.61 35.9438 19.95 35.4438 20.63C34.9638 21.29 34.4838 22.17 34.0038 23.27C33.5238 24.37 33.1338 25.53 32.8338 26.75C32.6138 27.69 32.3538 28.33 32.0538 28.67C31.7738 28.99 31.3238 29.15 30.7038 29.15ZM45.9161 29.15C44.6761 29.15 43.6861 28.7 42.9461 27.8C42.2061 26.9 41.8361 25.72 41.8361 24.26C41.8361 22.66 42.2061 21.15 42.9461 19.73C43.6861 18.29 44.6661 17.14 45.8861 16.28C47.1261 15.4 48.4361 14.96 49.8161 14.96C50.2561 14.96 50.5461 15.05 50.6861 15.23C50.8461 15.39 50.9761 15.69 51.0761 16.13C51.4961 16.05 51.9361 16.01 52.3961 16.01C53.3761 16.01 53.8661 16.36 53.8661 17.06C53.8661 17.48 53.7161 18.48 53.4161 20.06C52.9561 22.36 52.7261 23.96 52.7261 24.86C52.7261 25.16 52.7961 25.4 52.9361 25.58C53.0961 25.76 53.2961 25.85 53.5361 25.85C53.9161 25.85 54.3761 25.61 54.9161 25.13C55.4561 24.63 56.1861 23.83 57.1061 22.73C57.3461 22.45 57.6161 22.31 57.9161 22.31C58.1761 22.31 58.3761 22.43 58.5161 22.67C58.6761 22.91 58.7561 23.24 58.7561 23.66C58.7561 24.46 58.5661 25.08 58.1861 25.52C57.3661 26.54 56.4961 27.4 55.5761 28.1C54.6561 28.8 53.7661 29.15 52.9061 29.15C52.2461 29.15 51.6361 28.93 51.0761 28.49C50.5361 28.03 50.1261 27.41 49.8461 26.63C48.8061 28.31 47.4961 29.15 45.9161 29.15ZM46.9961 26.12C47.4361 26.12 47.8561 25.86 48.2561 25.34C48.6561 24.82 48.9461 24.13 49.1261 23.27L50.2361 17.75C49.3961 17.77 48.6161 18.09 47.8961 18.71C47.1961 19.31 46.6361 20.11 46.2161 21.11C45.7961 22.11 45.5861 23.17 45.5861 24.29C45.5861 24.91 45.7061 25.37 45.9461 25.67C46.2061 25.97 46.5561 26.12 46.9961 26.12ZM58.4479 29.15C57.6879 29.15 57.1479 28.75 56.8279 27.95C56.5279 27.15 56.3779 25.87 56.3779 24.11C56.3779 21.51 56.7479 19.04 57.4879 16.7C57.6679 16.12 57.9579 15.7 58.3579 15.44C58.7779 15.16 59.3579 15.02 60.0979 15.02C60.4979 15.02 60.7779 15.07 60.9379 15.17C61.0979 15.27 61.1779 15.46 61.1779 15.74C61.1779 16.06 61.0279 16.78 60.7279 17.9C60.5279 18.7 60.3679 19.4 60.2479 20C60.1279 20.6 60.0279 21.34 59.9479 22.22C60.6079 20.5 61.3479 19.1 62.1679 18.02C62.9879 16.94 63.7879 16.17 64.5679 15.71C65.3679 15.25 66.0979 15.02 66.7579 15.02C68.0579 15.02 68.7079 15.67 68.7079 16.97C68.7079 17.75 68.4879 19.16 68.0479 21.2C67.6679 22.94 67.4779 24.09 67.4779 24.65C67.4779 25.45 67.7679 25.85 68.3479 25.85C68.7479 25.85 69.2179 25.61 69.7579 25.13C70.3179 24.63 71.0579 23.83 71.9779 22.73C72.2179 22.45 72.4879 22.31 72.7879 22.31C73.0479 22.31 73.2479 22.43 73.3879 22.67C73.5479 22.91 73.6279 23.24 73.6279 23.66C73.6279 24.46 73.4379 25.08 73.0579 25.52C72.1979 26.58 71.2679 27.45 70.2679 28.13C69.2879 28.81 68.1679 29.15 66.9079 29.15C65.8879 29.15 65.1179 28.86 64.5979 28.28C64.0779 27.68 63.8179 26.82 63.8179 25.7C63.8179 25.14 63.9579 24.14 64.2379 22.7C64.4979 21.44 64.6279 20.57 64.6279 20.09C64.6279 19.77 64.5179 19.61 64.2979 19.61C64.0379 19.61 63.6679 19.95 63.1879 20.63C62.7279 21.29 62.2479 22.17 61.7479 23.27C61.2679 24.37 60.8779 25.53 60.5779 26.75C60.3579 27.69 60.0979 28.33 59.7979 28.67C59.5179 28.99 59.0679 29.15 58.4479 29.15ZM84.5807 22.31C84.8407 22.31 85.0407 22.43 85.1807 22.67C85.3407 22.91 85.4207 23.24 85.4207 23.66C85.4207 24.46 85.2307 25.08 84.8507 25.52C83.9907 26.58 83.0507 27.45 82.0307 28.13C81.0107 28.81 79.8407 29.15 78.5207 29.15C74.4407 29.15 72.4007 26.28 72.4007 20.54C72.4007 19.66 72.4307 18.77 72.4907 17.87H71.3207C70.7207 17.87 70.3107 17.76 70.0907 17.54C69.8907 17.32 69.7907 16.97 69.7907 16.49C69.7907 15.37 70.2407 14.81 71.1407 14.81H72.8507C73.1907 12.61 73.7107 10.6 74.4107 8.78C75.1107 6.96 75.9507 5.51 76.9307 4.43C77.9307 3.35 79.0007 2.81 80.1407 2.81C80.9807 2.81 81.6407 3.18 82.1207 3.92C82.6007 4.66 82.8407 5.59 82.8407 6.71C82.8407 9.81 81.5407 12.51 78.9407 14.81H82.3007C82.6207 14.81 82.8507 14.88 82.9907 15.02C83.1307 15.16 83.2007 15.42 83.2007 15.8C83.2007 17.18 82.0707 17.87 79.8107 17.87H76.1507C76.1107 18.87 76.0907 19.65 76.0907 20.21C76.0907 22.29 76.3307 23.75 76.8107 24.59C77.3107 25.43 78.0907 25.85 79.1507 25.85C80.0107 25.85 80.7707 25.59 81.4307 25.07C82.0907 24.55 82.8707 23.77 83.7707 22.73C84.0107 22.45 84.2807 22.31 84.5807 22.31ZM79.3307 5.69C79.0307 5.69 78.6907 6.07 78.3107 6.83C77.9507 7.57 77.6007 8.61 77.2607 9.95C76.9407 11.27 76.6707 12.74 76.4507 14.36C77.6307 13.34 78.5107 12.2 79.0907 10.94C79.6907 9.66 79.9907 8.5 79.9907 7.46C79.9907 6.28 79.7707 5.69 79.3307 5.69ZM93.7181 23.21C93.9781 23.21 94.1781 23.33 94.3181 23.57C94.4781 23.81 94.5581 24.14 94.5581 24.56C94.5581 25.28 94.3881 25.9 94.0481 26.42C93.4881 27.28 92.7481 27.95 91.8281 28.43C90.9281 28.91 89.8481 29.15 88.5881 29.15C86.6681 29.15 85.1781 28.58 84.1181 27.44C83.0581 26.28 82.5281 24.72 82.5281 22.76C82.5281 21.38 82.8181 20.1 83.3981 18.92C83.9781 17.72 84.7781 16.77 85.7981 16.07C86.8381 15.37 88.0081 15.02 89.3081 15.02C90.4681 15.02 91.3981 15.37 92.0981 16.07C92.7981 16.75 93.1481 17.68 93.1481 18.86C93.1481 20.24 92.6481 21.43 91.6481 22.43C90.6681 23.41 88.9881 24.19 86.6081 24.77C87.0881 25.69 87.8981 26.15 89.0381 26.15C89.8581 26.15 90.5281 25.96 91.0481 25.58C91.5881 25.2 92.2081 24.56 92.9081 23.66C93.1481 23.36 93.4181 23.21 93.7181 23.21ZM88.7981 17.96C88.0581 17.96 87.4281 18.39 86.9081 19.25C86.4081 20.11 86.1581 21.15 86.1581 22.37V22.43C87.3381 22.15 88.2681 21.73 88.9481 21.17C89.6281 20.61 89.9681 19.96 89.9681 19.22C89.9681 18.84 89.8581 18.54 89.6381 18.32C89.4381 18.08 89.1581 17.96 88.7981 17.96ZM98.7297 29.15C97.8497 29.15 97.1797 28.91 96.7197 28.43C96.2797 27.95 96.0597 27.32 96.0597 26.54C96.0597 25.64 96.3097 24.92 96.8097 24.38C97.3297 23.84 98.0497 23.57 98.9697 23.57C99.8497 23.57 100.51 23.79 100.95 24.23C101.41 24.65 101.64 25.28 101.64 26.12C101.64 27.04 101.38 27.78 100.86 28.34C100.34 28.88 99.6297 29.15 98.7297 29.15ZM106.202 29.15C105.442 29.15 104.902 28.75 104.582 27.95C104.282 27.15 104.132 25.87 104.132 24.11C104.132 21.51 104.502 19.04 105.242 16.7C105.422 16.12 105.712 15.7 106.112 15.44C106.532 15.16 107.112 15.02 107.852 15.02C108.252 15.02 108.532 15.07 108.692 15.17C108.852 15.27 108.932 15.46 108.932 15.74C108.932 16.06 108.782 16.78 108.482 17.9C108.282 18.7 108.122 19.4 108.002 20C107.882 20.6 107.782 21.34 107.702 22.22C108.362 20.5 109.102 19.1 109.922 18.02C110.742 16.94 111.542 16.17 112.322 15.71C113.122 15.25 113.852 15.02 114.512 15.02C115.812 15.02 116.462 15.67 116.462 16.97C116.462 17.23 116.372 17.86 116.192 18.86C116.032 19.66 115.952 20.16 115.952 20.36C115.952 21.06 116.202 21.41 116.702 21.41C117.262 21.41 117.982 20.97 118.862 20.09C119.122 19.83 119.392 19.7 119.672 19.7C119.932 19.7 120.132 19.82 120.272 20.06C120.432 20.28 120.512 20.58 120.512 20.96C120.512 21.7 120.312 22.28 119.912 22.7C119.352 23.28 118.692 23.78 117.932 24.2C117.192 24.6 116.402 24.8 115.562 24.8C114.502 24.8 113.692 24.53 113.132 23.99C112.592 23.45 112.322 22.72 112.322 21.8C112.322 21.5 112.352 21.2 112.412 20.9C112.452 20.5 112.472 20.23 112.472 20.09C112.472 19.77 112.362 19.61 112.142 19.61C111.842 19.61 111.442 19.95 110.942 20.63C110.462 21.29 109.982 22.17 109.502 23.27C109.022 24.37 108.632 25.53 108.332 26.75C108.112 27.69 107.852 28.33 107.552 28.67C107.272 28.99 106.822 29.15 106.202 29.15ZM120.844 29.15C119.904 29.15 119.144 28.77 118.564 28.01C118.004 27.23 117.724 26.16 117.724 24.8C117.724 23.3 117.824 21.93 118.024 20.69C118.224 19.43 118.554 18.1 119.014 16.7C119.214 16.1 119.494 15.67 119.854 15.41C120.214 15.15 120.784 15.02 121.564 15.02C122.004 15.02 122.304 15.09 122.464 15.23C122.644 15.37 122.734 15.58 122.734 15.86C122.734 16.02 122.624 16.56 122.404 17.48C122.204 18.22 122.044 18.89 121.924 19.49C121.524 21.59 121.324 22.99 121.324 23.69C121.324 24.11 121.374 24.41 121.474 24.59C121.574 24.75 121.734 24.83 121.954 24.83C122.254 24.83 122.634 24.53 123.094 23.93C123.554 23.31 124.034 22.39 124.534 21.17C125.054 19.93 125.544 18.44 126.004 16.7C126.164 16.1 126.404 15.67 126.724 15.41C127.064 15.15 127.564 15.02 128.224 15.02C128.664 15.02 128.974 15.14 129.154 15.38C129.354 15.6 129.454 15.94 129.454 16.4C129.454 16.9 129.414 17.46 129.334 18.08C129.254 18.68 129.164 19.3 129.064 19.94C128.864 21.22 128.704 22.39 128.584 23.45C128.464 24.49 128.404 25.68 128.404 27.02C128.404 27.78 128.244 28.33 127.924 28.67C127.624 28.99 127.124 29.15 126.424 29.15C125.684 29.15 125.164 28.96 124.864 28.58C124.584 28.18 124.444 27.42 124.444 26.3C124.444 26.08 124.464 25.59 124.504 24.83C124.164 26.23 123.654 27.3 122.974 28.04C122.314 28.78 121.604 29.15 120.844 29.15Z" fill="#0A0614"/>
</svg>
